inDegrees=no
num_controls=7
num_derivatives=13
num_iterations=153
num_multipliers=7
num_parameters=0
num_slacks=7
num_states=26
objective=0.501456
objective_accelerations=0.010398
objective_balance=0.003627
objective_effort=0.012563
objective_height=0.373953
objective_ligament=0.100915
solver_duration=1928.355085
status=Solve_Succeeded
success=true
DataType=double
version=3
OpenSimVersion=4.5
endheader
time	/jointset/ground_pelvis/pelvis_tilt/value	/jointset/ground_pelvis/pelvis_tx/value	/jointset/ground_pelvis/pelvis_ty/value	/jointset/hip_l/hip_flexion_l/value	/jointset/hip_l/hip_adduction_l/value	/jointset/hip_l/hip_rotation_l/value	/jointset/back/lumbar_extension/value	/jointset/patellofemoral_l/patellar_flexion_l/value	/jointset/knee_l/knee_flexion_l/value	/jointset/knee_l/knee_adduction_l/value	/jointset/knee_l/knee_rotation_l/value	/jointset/ankle_l/ankle_angle_l/value	/jointset/subtalar_l/subtalar_angle_l/value	/jointset/ground_pelvis/pelvis_tilt/speed	/jointset/ground_pelvis/pelvis_tx/speed	/jointset/ground_pelvis/pelvis_ty/speed	/jointset/hip_l/hip_flexion_l/speed	/jointset/hip_l/hip_adduction_l/speed	/jointset/hip_l/hip_rotation_l/speed	/jointset/back/lumbar_extension/speed	/jointset/patellofemoral_l/patellar_flexion_l/speed	/jointset/knee_l/knee_flexion_l/speed	/jointset/knee_l/knee_adduction_l/speed	/jointset/knee_l/knee_rotation_l/speed	/jointset/ankle_l/ankle_angle_l/speed	/jointset/subtalar_l/subtalar_angle_l/speed	/forceset/tau_hip_flexion_l	/forceset/tau_hip_adduction_l	/forceset/tau_hip_rotation_l	/forceset/tau_knee_flexion_l	/forceset/tau_ankle_angle_l	/forceset/tau_subtalar_angle_l	/forceset/tau_lumbar_extension	lambda_cid13_p0	lambda_cid13_p1	lambda_cid13_p2	lambda_cid13_p3	lambda_cid13_p4	lambda_cid13_p5	lambda_cid14_p0	/jointset/ground_pelvis/pelvis_tilt/accel	/jointset/ground_pelvis/pelvis_tx/accel	/jointset/ground_pelvis/pelvis_ty/accel	/jointset/hip_l/hip_flexion_l/accel	/jointset/hip_l/hip_adduction_l/accel	/jointset/hip_l/hip_rotation_l/accel	/jointset/back/lumbar_extension/accel	/jointset/patellofemoral_l/patellar_flexion_l/accel	/jointset/knee_l/knee_flexion_l/accel	/jointset/knee_l/knee_adduction_l/accel	/jointset/knee_l/knee_rotation_l/accel	/jointset/ankle_l/ankle_angle_l/accel	/jointset/subtalar_l/subtalar_angle_l/accel	gamma_cid13_p0	gamma_cid13_p1	gamma_cid13_p2	gamma_cid13_p3	gamma_cid13_p4	gamma_cid13_p5	gamma_cid14_p0
1.5	0.1254728668456567	0.0265107123559887	0.9368392579181052	0.1635038640612319	-0.2211383008324182	-0.3435921628674469	-0.7265792715719036	0.2122619665838814	0.2122619665837063	-0.03096927241393042	-0.1745125135650235	-0.0152700705189907	0.073162491612937	0.09203841754055561	0.1657516955183931	0.05784495441054061	-0.5749824138933666	0.07404572301764062	-0.1513183011342641	0.8461772176618194	-0.4680148054880368	-0.4680148054883619	-0.01304601535244267	-6.793457690000896e-05	0.02138840466794988	0.08799169354381316	-0.09404766277027926	0.009173651172997779	-0.007035223250478785	-0.09185187942501596	0.08127063462162532	0.02150690851990997	0.211391417849954	-18.76609360162798	-9.001067192843871	4.346233601317722	2.284857231904717	-694.0501576804887	-81.69582292746186	-22.13446251705773	-0.1935151672086619	0.1531811017046847	-0.0842086146486906	0.02987029661822421	-0.07182857990099101	0.009662171931144355	0.7810248742059104	-0.006280940185031254	-0.006280940185031349	-0.2341734782733458	0.001249290122979865	0.1086610126825614	-0.02790145745726382	2.491421708969382e-09	2.117041799343821e-08	-1.23433563338206e-08	-1.268351927931128e-09	2.293283472834043e-08	1.588821665917144e-09	3.662393678413935e-09
1.51	0.1263836172684605	0.02817565105078814	0.9374134321359482	0.157755924116389	-0.2204016110694811	-0.3451047965645558	-0.7180797806887653	0.2075818459215812	0.2075818459214362	-0.03111169098407812	-0.1745132070344333	-0.0150509436310565	0.07404075477988703	0.09010998267274518	0.1672115028919223	0.05698186237147327	-0.5745425559517914	0.07327803301896509	-0.1511899882035339	0.8535955062570276	-0.4679499876490754	-0.4679499876493472	-0.01544625997535398	-7.017931263046444e-05	0.02242991945067676	0.08764318776191372	-0.08895810980933817	0.007756144559376763	-0.006970967079928886	-0.09368062782330785	0.0830692810940139	0.02029640510302711	0.2064550584235577	-18.20849312963102	-8.563962378851581	4.266249838451889	2.299845885827263	-693.0836934294547	-81.56889384606694	-22.04243035220964	-0.1927612380198713	0.1386991653509201	-0.0885579191111656	0.06049587978595544	-0.08137331146497925	0.01718709030172793	0.70341294588859	0.02176327959590056	0.02176327960389321	-0.2442297287547214	-0.0008777050823338929	0.1008392671814921	-0.0409907698519421	2.253015685207925e-09	2.455078602730834e-08	-1.168471156095677e-08	-1.445477040164977e-09	2.626863017477473e-08	1.976197655688369e-09	3.768947618887713e-09
1.52	0.1272750326242955	0.02985445154135762	0.9379787357492855	0.1520142732183331	-0.2196730250268545	-0.3466155928850251	-0.7095098705009331	0.2029041534644023	0.2029041534642878	-0.03127836795534531	-0.1745139062211339	-0.01482161308407218	0.07491499976275891	0.08817140414682946	0.1685240546723968	0.05607083350939686	-0.5737246045358659	0.07242497895572275	-0.1509508258064928	0.860261078600651	-0.4675291644637477	-0.4675291644639661	-0.01789769557645257	-6.907803481180958e-05	0.02342913647795307	0.08718805672818822	-0.08386855684839738	0.006338637945759546	-0.006906710909375184	-0.09550937622160037	0.08486792756640345	0.01908590168614858	0.20151869899716	-17.65178042846371	-8.126016800036124	4.185349273510621	2.304272557381116	-692.1298912237079	-81.44183243019789	-21.94784857778604	-0.1955438988297005	0.1237299830937559	-0.09379597925050608	0.1054889914882892	-0.08890139281435203	0.03183206519332096	0.6304816238890024	0.06492012908820688	0.06492012908820727	-0.2444116739107968	0.001918492832803048	0.1002014615924257	-0.04922650782248166	2.008246812137438e-09	2.798607039786408e-08	-1.098518441332432e-08	-1.599093424899868e-09	2.954513948440556e-08	2.443370095572515e-09	3.875316822141978e-09
1.53	0.1281470455500799	0.03154562327229915	0.9385347009398287	0.1462826495749623	-0.2189533833029015	-0.3481234813553962	-0.7008771458828229	0.1982324038758158	0.1982324038757909	-0.03146979649057512	-0.1745146018549987	-0.01458253524984325	0.07578416009614192	0.08623059862280397	0.1696836871063822	0.05511483999019115	-0.5725352923624223	0.07148927638030507	-0.1506079203733043	0.8661524877340165	-0.4667600731300241	-0.4667600731300124	-0.02039510053310405	-6.943436953185897e-05	0.02437795740434473	0.08662570465281116	-0.07869918873308569	0.004884200171538371	-0.00684388758669649	-0.09746032136360566	0.08676349697770375	0.01783885606333245	0.1965190795832873	-17.07159338999902	-7.673984010676926	4.099544652159625	2.322272538097445	-691.2331793307299	-81.3100260886327	-21.8507860605896	-0.193437630747278	0.1080888527584756	-0.0975988338142091	0.135376201901076	-0.09802411615132567	0.03836579433654685	0.5487669649857321	0.09200484635623299	0.0920048463907418	-0.2534624372585979	-0.0009239287183297619	0.09095211197468976	-0.06248945079385795	1.756717411676109e-09	3.147970337614826e-08	-1.024221974250022e-08	-1.727731786667117e-09	3.27586572736827e-08	2.99532626370164e-09	3.98148974210051e-09
